<svg width="288" height="87" viewBox="0 0 288 87" fill="none" xmlns="http://www.w3.org/2000/svg">
<path d="M22.034 31.9751V25.6364H51.899V31.9751H40.7662V62H33.1668V31.9751H22.034ZM65.9427 62.5327C63.1846 62.5327 60.7994 61.9467 58.7871 60.7749C56.7867 59.5911 55.2419 57.9458 54.1529 55.8388C53.0639 53.7199 52.5194 51.2637 52.5194 48.4702C52.5194 45.6529 53.0639 43.1908 54.1529 41.0838C55.2419 38.965 56.7867 37.3196 58.7871 36.1477C60.7994 34.964 63.1846 34.3722 65.9427 34.3722C68.7007 34.3722 71.08 34.964 73.0805 36.1477C75.0928 37.3196 76.6434 38.965 77.7324 41.0838C78.8215 43.1908 79.366 45.6529 79.366 48.4702C79.366 51.2637 78.8215 53.7199 77.7324 55.8388C76.6434 57.9458 75.0928 59.5911 73.0805 60.7749C71.08 61.9467 68.7007 62.5327 65.9427 62.5327ZM65.9782 56.6733C67.2329 56.6733 68.2805 56.3182 69.1209 55.608C69.9614 54.8859 70.5947 53.9034 71.0208 52.6605C71.4588 51.4176 71.6778 50.0031 71.6778 48.4169C71.6778 46.8307 71.4588 45.4162 71.0208 44.1733C70.5947 42.9304 69.9614 41.9479 69.1209 41.2259C68.2805 40.5038 67.2329 40.1428 65.9782 40.1428C64.7116 40.1428 63.6463 40.5038 62.7822 41.2259C61.9299 41.9479 61.2848 42.9304 60.8468 44.1733C60.4207 45.4162 60.2076 46.8307 60.2076 48.4169C60.2076 50.0031 60.4207 51.4176 60.8468 52.6605C61.2848 53.9034 61.9299 54.8859 62.7822 55.608C63.6463 56.3182 64.7116 56.6733 65.9782 56.6733ZM85.1843 72.2273V34.7273H92.6417V39.3082H92.979C93.3105 38.5743 93.7899 37.8286 94.4172 37.071C95.0564 36.3016 95.885 35.6624 96.903 35.1534C97.9329 34.6326 99.2113 34.3722 100.738 34.3722C102.727 34.3722 104.562 34.893 106.243 35.9347C107.923 36.9645 109.267 38.5211 110.273 40.6044C111.279 42.6759 111.782 45.2741 111.782 48.3991C111.782 51.4413 111.291 54.0099 110.309 56.1051C109.338 58.1884 108.012 59.7687 106.331 60.8459C104.662 61.9112 102.792 62.4439 100.721 62.4439C99.2527 62.4439 98.0039 62.2012 96.9741 61.7159C95.9561 61.2306 95.1216 60.621 94.4705 59.8871C93.8195 59.1413 93.3223 58.3897 92.979 57.6321H92.7482V72.2273H85.1843ZM92.5884 48.3636C92.5884 49.9853 92.8133 51.3999 93.2631 52.6072C93.7129 53.8146 94.364 54.7557 95.2162 55.4304C96.0685 56.0933 97.1043 56.4247 98.3235 56.4247C99.5546 56.4247 100.596 56.0874 101.448 55.4126C102.301 54.7261 102.946 53.7791 103.384 52.5717C103.834 51.3525 104.059 49.9498 104.059 48.3636C104.059 46.7893 103.84 45.4044 103.402 44.2088C102.964 43.0133 102.319 42.0781 101.466 41.4034C100.614 40.7287 99.5664 40.3913 98.3235 40.3913C97.0924 40.3913 96.0508 40.7169 95.1985 41.3679C94.3581 42.0189 93.7129 42.9422 93.2631 44.1378C92.8133 45.3333 92.5884 46.742 92.5884 48.3636ZM143.23 62H130.339V25.6364H143.336C146.994 25.6364 150.143 26.3643 152.782 27.8203C155.422 29.2644 157.452 31.3419 158.873 34.0526C160.305 36.7633 161.021 40.0066 161.021 43.7827C161.021 47.5705 160.305 50.8258 158.873 53.5483C157.452 56.2708 155.41 58.3601 152.747 59.8161C150.095 61.272 146.923 62 143.23 62ZM138.027 55.4126H142.91C145.183 55.4126 147.095 55.0102 148.645 54.2053C150.208 53.3885 151.38 52.1278 152.161 50.4233C152.954 48.7069 153.351 46.4934 153.351 43.7827C153.351 41.0956 152.954 38.8999 152.161 37.1953C151.38 35.4908 150.214 34.236 148.663 33.4311C147.112 32.6262 145.201 32.2237 142.928 32.2237H138.027V55.4126ZM179.903 62.5327C177.098 62.5327 174.683 61.9645 172.659 60.8281C170.646 59.6799 169.096 58.0582 168.007 55.9631C166.918 53.8561 166.373 51.3643 166.373 48.4879C166.373 45.6825 166.918 43.2204 168.007 41.1016C169.096 38.9827 170.629 37.3314 172.606 36.1477C174.594 34.964 176.926 34.3722 179.601 34.3722C181.4 34.3722 183.075 34.6622 184.626 35.2422C186.189 35.8104 187.55 36.6686 188.71 37.8168C189.882 38.965 190.793 40.4091 191.444 42.1491C192.095 43.8774 192.421 45.9015 192.421 48.2216V50.299H169.392V45.6115H185.301C185.301 44.5225 185.064 43.5578 184.591 42.7173C184.117 41.8769 183.46 41.2199 182.62 40.7464C181.791 40.2611 180.826 40.0185 179.726 40.0185C178.577 40.0185 177.559 40.2848 176.672 40.8175C175.796 41.3383 175.109 42.0426 174.612 42.9304C174.115 43.8063 173.86 44.7829 173.848 45.8601V50.3168C173.848 51.6662 174.097 52.8321 174.594 53.8146C175.103 54.7971 175.819 55.5547 176.743 56.0874C177.666 56.62 178.761 56.8864 180.027 56.8864C180.868 56.8864 181.637 56.768 182.336 56.5312C183.034 56.2945 183.632 55.9394 184.129 55.4659C184.626 54.9924 185.005 54.4124 185.265 53.7259L192.261 54.1875C191.906 55.8684 191.178 57.3362 190.077 58.5909C188.988 59.8338 187.579 60.8045 185.851 61.5028C184.135 62.1894 182.152 62.5327 179.903 62.5327ZM206.034 62.5149C204.294 62.5149 202.743 62.2131 201.382 61.6094C200.021 60.9938 198.943 60.0883 198.15 58.8928C197.369 57.6854 196.979 56.1821 196.979 54.3828C196.979 52.8677 197.257 51.5952 197.813 50.5653C198.369 49.5355 199.127 48.7069 200.086 48.0795C201.045 47.4522 202.134 46.9787 203.353 46.6591C204.584 46.3395 205.874 46.1146 207.224 45.9844C208.81 45.8187 210.088 45.6648 211.059 45.5227C212.029 45.3688 212.734 45.1439 213.172 44.848C213.61 44.5521 213.829 44.1141 213.829 43.5341V43.4276C213.829 42.303 213.474 41.433 212.763 40.8175C212.065 40.2019 211.071 39.8942 209.78 39.8942C208.419 39.8942 207.336 40.196 206.531 40.7997C205.726 41.3916 205.193 42.1373 204.933 43.0369L197.937 42.4688C198.292 40.8116 198.991 39.3793 200.032 38.1719C201.074 36.9527 202.418 36.0175 204.063 35.3665C205.72 34.7036 207.638 34.3722 209.816 34.3722C211.331 34.3722 212.781 34.5497 214.166 34.9048C215.563 35.2599 216.8 35.8104 217.877 36.5561C218.966 37.3018 219.824 38.2607 220.452 39.4325C221.079 40.5926 221.393 41.9834 221.393 43.6051V62H214.219V58.218H214.006C213.568 59.0703 212.982 59.822 212.248 60.473C211.515 61.1122 210.633 61.6153 209.603 61.9822C208.573 62.3374 207.383 62.5149 206.034 62.5149ZM208.2 57.2947C209.313 57.2947 210.295 57.0758 211.148 56.6378C212 56.188 212.669 55.5843 213.154 54.8267C213.639 54.0691 213.882 53.2109 213.882 52.2521V49.358C213.645 49.5118 213.32 49.6539 212.905 49.7841C212.503 49.9025 212.047 50.0149 211.538 50.1214C211.029 50.2161 210.52 50.3049 210.011 50.3878C209.502 50.4588 209.041 50.5239 208.626 50.5831C207.738 50.7133 206.963 50.9205 206.3 51.2045C205.637 51.4886 205.122 51.8733 204.756 52.3587C204.389 52.8321 204.205 53.424 204.205 54.1342C204.205 55.1641 204.578 55.9512 205.324 56.4957C206.081 57.0284 207.04 57.2947 208.2 57.2947ZM235.725 25.6364V62H228.161V25.6364H235.725ZM265.376 42.5043L258.451 42.9304C258.333 42.3385 258.078 41.8059 257.687 41.3324C257.297 40.8471 256.782 40.4624 256.143 40.1783C255.515 39.8823 254.764 39.7344 253.888 39.7344C252.716 39.7344 251.727 39.983 250.923 40.4801C250.118 40.9654 249.715 41.6165 249.715 42.4332C249.715 43.0843 249.976 43.6347 250.496 44.0845C251.017 44.5343 251.911 44.8954 253.178 45.1676L258.114 46.1619C260.765 46.7064 262.742 47.5824 264.044 48.7898C265.346 49.9972 265.997 51.5833 265.997 53.5483C265.997 55.3357 265.47 56.9041 264.417 58.2536C263.375 59.603 261.943 60.6565 260.12 61.4141C258.309 62.1598 256.22 62.5327 253.852 62.5327C250.242 62.5327 247.365 61.781 245.223 60.2777C243.092 58.7625 241.843 56.7029 241.477 54.0987L248.916 53.7081C249.141 54.8089 249.686 55.6494 250.55 56.2294C251.414 56.7976 252.521 57.0817 253.87 57.0817C255.196 57.0817 256.261 56.8272 257.066 56.3182C257.883 55.7973 258.297 55.1286 258.309 54.3118C258.297 53.6252 258.007 53.063 257.439 52.625C256.871 52.1752 255.995 51.8319 254.811 51.5952L250.088 50.6541C247.425 50.1214 245.442 49.1982 244.14 47.8842C242.85 46.5703 242.204 44.8954 242.204 42.8594C242.204 41.1075 242.678 39.5982 243.625 38.3317C244.584 37.0651 245.927 36.0885 247.655 35.402C249.396 34.7154 251.432 34.3722 253.763 34.3722C257.208 34.3722 259.919 35.1001 261.896 36.5561C263.884 38.0121 265.044 39.9948 265.376 42.5043Z" fill="#205a42"/>
</svg>
